<?xml version="1.0" ?><!DOCTYPE svg  PUBLIC '-//W3C//DTD SVG 1.1//EN'  'http://www.w3.org/Graphics/SVG/1.1/DTD/svg11.dtd'><svg enable-background="new 0 0 32 32" height="32px" version="1.1" viewBox="0 0 32 32" width="32px" xml:space="preserve" xmlns="http://www.w3.org/2000/svg" xmlns:xlink="http://www.w3.org/1999/xlink"><g id="SHA-256_1_"><g><g><g><path d="M30,17.5v-14C30,3.225,29.775,3,29.5,3h-23C6.225,3,6,3.225,6,3.5v4C6,7.776,5.776,8,5.5,8l0,0      C5.224,8,5,7.776,5,7.5v-4C5,2.673,5.673,2,6.5,2h23C30.327,2,31,2.673,31,3.5v14c0,0.276-0.224,0.5-0.5,0.5l0,0      C30.224,18,30,17.776,30,17.5z" fill="#263238"/></g></g><g><g><path d="M30.5,7h-25C5.224,7,5,6.776,5,6.5v-3C5,2.673,5.673,2,6.5,2h23C30.327,2,31,2.673,31,3.5v3      C31,6.776,30.776,7,30.5,7z M6,6h24V3.5C30,3.225,29.775,3,29.5,3h-23C6.225,3,6,3.225,6,3.5V6z" fill="#263238"/></g></g><g><g><path d="M2.5,30C1.673,30,1,29.327,1,28.5v-18C1,9.673,1.673,9,2.5,9h23c0.827,0,1.5,0.673,1.5,1.5v5      c0,0.276-0.224,0.5-0.5,0.5l0,0c-0.276,0-0.5-0.224-0.5-0.5v-5c0-0.275-0.225-0.5-0.5-0.5h-23C2.225,10,2,10.225,2,10.5v18      C2,28.775,2.225,29,2.5,29h23c0.275,0,0.5-0.225,0.5-0.5c0,0,0-0.112,0-0.25S26.224,28,26.5,28l0,0c0.276,0,0.5,0.112,0.5,0.25      v0.25c0,0.827-0.673,1.5-1.5,1.5H2.5z" fill="#263238"/></g></g><g><g><path d="M26.5,14h-25C1.224,14,1,13.776,1,13.5v-3C1,9.673,1.673,9,2.5,9h23c0.827,0,1.5,0.673,1.5,1.5v3      C27,13.776,26.776,14,26.5,14z M2,13h24v-2.5c0-0.275-0.225-0.5-0.5-0.5h-23C2.225,10,2,10.225,2,10.5V13z" fill="#263238"/></g></g><g><g><path d="M26,27c-2.757,0-5-2.243-5-5s2.243-5,5-5s5,2.243,5,5S28.757,27,26,27z M26,18c-2.205,0-4,1.795-4,4      s1.795,4,4,4s4-1.795,4-4S28.205,18,26,18z" fill="#263238"/></g></g><g><g><circle cx="11.5" cy="4.5" fill="#263238" r="0.5"/></g></g><g><g><circle cx="9.5" cy="4.5" fill="#263238" r="0.5"/></g></g><g><g><circle cx="7.5" cy="4.5" fill="#263238" r="0.5"/></g></g><g><g><circle cx="7.5" cy="11.5" fill="#263238" r="0.5"/></g></g><g><g><circle cx="5.5" cy="11.5" fill="#263238" r="0.5"/></g></g><g><g><circle cx="3.5" cy="11.5" fill="#263238" r="0.5"/></g></g><g><g><path d="M21,26.5c0,0.275-0.225,0.5-0.5,0.5h-2c-0.275,0-0.5-0.225-0.5-0.5l0,0c0-0.275,0.225-0.5,0.5-0.5h2      C20.775,26,21,26.225,21,26.5L21,26.5z" fill="#263238"/></g></g><g><g><path d="M17,26.5c0,0.275-0.225,0.5-0.5,0.5h-6c-0.275,0-0.5-0.225-0.5-0.5l0,0c0-0.275,0.225-0.5,0.5-0.5h6      C16.775,26,17,26.225,17,26.5L17,26.5z" fill="#263238"/></g></g><g><g><path d="M9,26.5C9,26.775,8.775,27,8.5,27h-3C5.225,27,5,26.775,5,26.5l0,0C5,26.225,5.225,26,5.5,26h3      C8.775,26,9,26.225,9,26.5L9,26.5z" fill="#263238"/></g></g><g><g><path d="M20,24.5c0,0.275-0.225,0.5-0.5,0.5h-7c-0.275,0-0.5-0.225-0.5-0.5l0,0c0-0.275,0.225-0.5,0.5-0.5h7      C19.775,24,20,24.225,20,24.5L20,24.5z" fill="#263238"/></g></g><g><g><path d="M11,24.5c0,0.275-0.225,0.5-0.5,0.5h-5C5.225,25,5,24.775,5,24.5l0,0C5,24.225,5.225,24,5.5,24h5      C10.775,24,11,24.225,11,24.5L11,24.5z" fill="#263238"/></g></g><g><g><path d="M7,22.5C7,22.775,6.775,23,6.5,23h-3C3.225,23,3,22.775,3,22.5l0,0C3,22.225,3.225,22,3.5,22h3      C6.775,22,7,22.225,7,22.5L7,22.5z" fill="#263238"/></g></g><g><g><path d="M19,20.5c0,0.275-0.225,0.5-0.5,0.5h-6c-0.275,0-0.5-0.225-0.5-0.5l0,0c0-0.275,0.225-0.5,0.5-0.5h6      C18.775,20,19,20.225,19,20.5L19,20.5z" fill="#263238"/></g></g><g><g><path d="M11,20.5c0,0.275-0.225,0.5-0.5,0.5h-2C8.225,21,8,20.775,8,20.5l0,0C8,20.225,8.225,20,8.5,20h2      C10.775,20,11,20.225,11,20.5L11,20.5z" fill="#263238"/></g></g><g><g><path d="M7,20.5C7,20.775,6.775,21,6.5,21h-1C5.225,21,5,20.775,5,20.5l0,0C5,20.225,5.225,20,5.5,20h1      C6.775,20,7,20.225,7,20.5L7,20.5z" fill="#263238"/></g></g><g><g><path d="M19,18.5c0,0.275-0.225,0.5-0.5,0.5h-1c-0.275,0-0.5-0.225-0.5-0.5l0,0c0-0.275,0.225-0.5,0.5-0.5h1      C18.775,18,19,18.225,19,18.5L19,18.5z" fill="#263238"/></g></g><g><g><path d="M16,18.5c0,0.275-0.225,0.5-0.5,0.5h-4c-0.275,0-0.5-0.225-0.5-0.5l0,0c0-0.275,0.225-0.5,0.5-0.5h4      C15.775,18,16,18.225,16,18.5L16,18.5z" fill="#263238"/></g></g><g><g><path d="M10,18.5c0,0.275-0.225,0.5-0.5,0.5h-4C5.225,19,5,18.775,5,18.5l0,0C5,18.225,5.225,18,5.5,18h4      C9.775,18,10,18.225,10,18.5L10,18.5z" fill="#263238"/></g></g><g><g><path d="M7,16.5C7,16.775,6.775,17,6.5,17h-3C3.225,17,3,16.775,3,16.5l0,0C3,16.225,3.225,16,3.5,16h3      C6.775,16,7,16.225,7,16.5L7,16.5z" fill="#263238"/></g></g></g></g></svg>